<svg xmlns="http://www.w3.org/2000/svg" viewBox="0 0 128 128">
  <rect width="128" height="128" rx="24" fill="#092E20"/>
  <g>
    <path fill="#fff" d="M59.448 0h20.93v96.88c-10.737 2.04-18.62 2.855-27.181 2.855-25.551-.001-38.87-11.551-38.87-33.705 0-21.338 14.135-35.2 36.015-35.2 3.398 0 5.98.272 9.106 1.087zm0 48.765c-2.446-.815-4.485-1.086-7.067-1.086-10.6 0-16.717 6.523-16.717 17.939 0 11.145 5.845 17.26 16.582 17.26 2.309 0 4.212-.136 7.202-.542z"/>
    <path fill="#fff" d="M113.672 32.321V80.84c0 16.717-1.224 24.735-4.893 31.666-3.398 6.661-7.883 10.873-17.124 15.494l-19.435-9.241c9.242-4.35 13.726-8.153 16.58-14 2.99-5.979 3.943-12.91 3.943-31.122V32.321z"/>
    <rect x="92.742" y=".111" width="20.93" height="21.474" fill="#fff"/>
    <rect x="95.242" y="2.611" width="15.93" height="16.474" fill="#092E20"/>
    <text x="103.2" y="15.5" font-family="Arial, Helvetica, sans-serif" font-size="12" fill="#fff" text-anchor="middle" font-weight="bold" letter-spacing="1">dj</text>
  </g>
</svg>