<svg xmlns="http://www.w3.org/2000/svg" viewBox="0 0 128 128">
  <circle cx="64" cy="64" r="62" fill="#fff"/>
  <path fill="#494949" d="M64.1 126.2c34.3-.1 62-28 62-62.3 0-33.8-27.6-61.7-60.6-62.3C30.9 1 1.9 29.1 1.9 63.2c0 35.1 27.6 63.1 62.2 63zm0-121.6c32.9 0 59.1 26.7 59.1 60.3 0 31.7-26.9 58.2-59.1 58.2-32.8 0-59.1-26.6-59.1-59.6C5 31.6 31.8 5 64.1 4.6zm-25 31.3c.5 1.8-1 2.4-2.6 2.5-1.7.1-3.4.3-5.3.4l19.3 57.6c.5-.8.7-1 .7-1.2 3.6-10.7 7.2-21.4 10.7-32.1.3-1 .2-2.3-.2-3.3-1.8-5.3-4-10.5-5.7-15.9-1.1-3.7-2.6-6.1-6.9-5.6-.7.1-1.6-1.5-2.5-2.3 1-.6 2-1.7 3-1.7 8.9 0 17.8 0 26.6 0 1 .1 2 1.2 3 1.8-.9.8-1.6 2-2.7 2.3-1.7.5-3.5.4-5.5.6l19.3 57.6c2.9-9.7 5.7-18.7 8.3-27.6 2.4-8 .9-15.5-3.3-22.5-1.3-2.1-2.9-4.2-3.6-6.5-.8-2.6-1.5-5.6-1.1-8.3.7-4.5 4.2-6.7 8.8-7.1C74.3.9 34.4 9.3 19.7 34.9c5.7-.3 11.1-.6 16.5-.7 1 0 2.7.9 2.9 1.7zm10.1 78c-.1.3-.1.7-.2 1.3 10.9 3 21.7 2.8 32.7-.9l-16.8-46c-5.4 15.6-10.5 30.6-15.7 45.6zm-8.5-2.1L15 40.4c-11.4 22.3-2.7 56.3 25.3 69.4zm76.4-44.6c.8-10.5-2.8-25.1-6-27.1-.3 3.9-.1 8.2-1.2 12.1-2.6 9.3-5.8 18.3-8.9 27.5-3.3 9.9-6.8 19.8-10.3 29.7 16.1-9.5 24.9-23.6 26.4-42.2z"/>
</svg>